<svg width="14" height="12" viewBox="0 0 14 12" fill="none" xmlns="http://www.w3.org/2000/svg">
<path fill-rule="evenodd" clip-rule="evenodd" d="M0.333008 1.13885C0.333008 0.881007 0.433349 0.633698 0.611953 0.451366C0.79056 0.269054 1.0328 0.166626 1.28539 0.166626H12.714C12.9666 0.166626 13.2088 0.269054 13.3874 0.451366C13.566 0.633698 13.6663 0.881007 13.6663 1.13885C13.6663 1.39669 13.566 1.644 13.3874 1.82633C13.2088 2.00862 12.9666 2.11107 12.714 2.11107H1.28539C1.0328 2.11107 0.79056 2.00862 0.611953 1.82633C0.433349 1.644 0.333008 1.39669 0.333008 1.13885ZM0.333008 5.99996C0.333008 5.74212 0.433349 5.49481 0.611953 5.31248C0.79056 5.13018 1.0328 5.02774 1.28539 5.02774H12.714C12.9666 5.02774 13.2088 5.13018 13.3874 5.31248C13.566 5.49481 13.6663 5.74212 13.6663 5.99996C13.6663 6.2578 13.566 6.50511 13.3874 6.68744C13.2088 6.86973 12.9666 6.97218 12.714 6.97218H1.28539C1.0328 6.97218 0.79056 6.86973 0.611953 6.68744C0.433349 6.50511 0.333008 6.2578 0.333008 5.99996ZM0.333008 10.8611C0.333008 10.6032 0.433349 10.3559 0.611953 10.1736C0.79056 9.9913 1.0328 9.88885 1.28539 9.88885H12.714C12.9666 9.88885 13.2088 9.9913 13.3874 10.1736C13.566 10.3559 13.6663 10.6032 13.6663 10.8611C13.6663 11.1189 13.566 11.3662 13.3874 11.5486C13.2088 11.7308 12.9666 11.8333 12.714 11.8333H1.28539C1.0328 11.8333 0.79056 11.7308 0.611953 11.5486C0.433349 11.3662 0.333008 11.1189 0.333008 10.8611Z" fill="#002968"/>
</svg>
