<svg width="20" height="20" viewBox="0 0 20 20" fill="none" xmlns="http://www.w3.org/2000/svg">
<path fill-rule="evenodd" clip-rule="evenodd" d="M10.703 4.601C9.50778 4.44535 8.29472 4.6906 7.25389 5.29832C6.56634 5.69977 5.97961 6.2444 5.53029 6.88994H7.66667C8.09622 6.88994 8.44444 7.23813 8.44444 7.66764C8.44444 8.09715 8.09622 8.44533 7.66667 8.44533H3.77778C3.34822 8.44533 3 8.09715 3 7.66764V3.77916C3 3.34965 3.34822 3.00146 3.77778 3.00146C4.20733 3.00146 4.55556 3.34965 4.55556 3.77916V5.59914C5.08517 4.94413 5.73224 4.38562 6.46949 3.95516C7.80765 3.17383 9.36725 2.85853 10.9039 3.05864C12.4405 3.25875 13.8673 3.96298 14.9607 5.06095C16.0541 6.15895 16.7521 7.58862 16.9457 9.12589C16.9993 9.55204 16.6973 9.94099 16.2711 9.99463C15.845 10.0483 15.456 9.74631 15.4023 9.32016C15.2518 8.1244 14.7088 7.0124 13.8584 6.15842C13.0079 5.3044 11.8981 4.75665 10.703 4.601ZM3.72832 10.0069C4.15447 9.95296 4.54367 10.2547 4.59762 10.6808C4.74895 11.876 5.29242 12.9875 6.14291 13.8409C6.99341 14.6944 8.10297 15.2417 9.29788 15.3974C10.4927 15.5529 11.7055 15.308 12.7462 14.7008C13.4333 14.2999 14.0199 13.7561 14.4693 13.1115H12.3333C11.9038 13.1115 11.5556 12.7633 11.5556 12.3338C11.5556 11.9043 11.9038 11.5561 12.3333 11.5561H16.2222C16.6518 11.5561 17 11.9043 17 12.3338V16.2223C17 16.6518 16.6518 17 16.2222 17C15.7927 17 15.4444 16.6518 15.4444 16.2223V14.4013C14.9146 15.056 14.2674 15.6141 13.5302 16.0442C12.1922 16.8248 10.6331 17.1397 9.09699 16.9398C7.5609 16.7397 6.13443 16.036 5.041 14.9387C3.94759 13.8416 3.24893 12.4127 3.05438 10.8761C3.00043 10.45 3.30216 10.0608 3.72832 10.0069Z" fill="#002968"/>
</svg>
