<svg width="18" height="14" viewBox="0 0 18 14" fill="none" xmlns="http://www.w3.org/2000/svg">
<path fill-rule="evenodd" clip-rule="evenodd" d="M1.52005 0.376424C1.28368 0.283793 1.01477 0.343344 0.839604 0.527108C0.664442 0.710872 0.617841 0.982334 0.721689 1.21399L3.31542 7L0.721689 12.786C0.617841 13.0177 0.664442 13.2891 0.839604 13.4729C1.01477 13.6567 1.28368 13.7162 1.52005 13.6236L16.9367 7.58191C17.1762 7.48808 17.3337 7.25716 17.3337 7C17.3337 6.74284 17.1762 6.51192 16.9367 6.41809L1.52005 0.376424ZM4.40509 6.375L2.48795 2.09829L14.9958 7L2.48795 11.9017L4.40509 7.625H7.54201C7.88718 7.625 8.16701 7.34518 8.16701 7C8.16701 6.65482 7.88718 6.375 7.54201 6.375H4.40509Z" fill="#002968"/>
</svg>
